<svg xmlns="http://www.w3.org/2000/svg" viewBox="0 0 32 32" width="44" height="44" style="border-color: rgba(0,0,0,1);border-width: 0px;border-style: solid" filter="none">
    
    <g>
    <path d="M28.6 10.2c0.2-0.6 1-3-0.2-6.2 0 0-2-0.6-6.4 2.4-2-0.4-4-0.6-6-0.6s-4 0.2-5.8 0.6c-4.6-3-6.6-2.4-6.6-2.4-1.2 3.2-0.4 5.6-0.2 6.2-1.4 1.6-2.4 3.8-2.4 6.4 0 9.6 6.2 11.8 15 11.8s15-2.2 15-11.8c0-2.6-1-4.8-2.4-6.4zM16 26.6c-6.2 0-11.2-0.2-11.2-6.2 0-1.4 0.8-2.8 2-3.8 2-1.8 5.4-0.8 9.4-0.8 3.8 0 7.2-1 9.2 0.8 1.2 1.2 2 2.4 2 3.8-0.2 5.8-5.2 6.2-11.4 6.2zM11.2 17.2c-1.2 0-2.2 1.6-2.2 3.4s1 3.4 2.2 3.4 2.2-1.6 2.2-3.4-0.8-3.4-2.2-3.4zM20.8 17.2c-1.2 0-2.2 1.4-2.2 3.4s1 3.4 2.2 3.4c1.2 0 2.2-1.6 2.2-3.4s-1-3.4-2.2-3.4z" fill="rgba(0,0,0,1)"></path>
    </g>
  </svg>